<?xml version="1.0" encoding="UTF-8"?>
<!DOCTYPE svg PUBLIC "-//W3C//DTD SVG 1.1//EN" "http://www.w3.org/Graphics/SVG/1.1/DTD/svg11.dtd">
<svg xmlns="http://www.w3.org/2000/svg" version="1.1" width="262px" height="225px" style="shape-rendering:geometricPrecision; text-rendering:geometricPrecision; image-rendering:optimizeQuality; fill-rule:evenodd; clip-rule:evenodd" xmlns:xlink="http://www.w3.org/1999/xlink">
<g><path style="opacity:1" fill="#000000" d="M -0.5,-0.5 C 86.8333,-0.5 174.167,-0.5 261.5,-0.5C 261.5,74.5 261.5,149.5 261.5,224.5C 174.167,224.5 86.8333,224.5 -0.5,224.5C -0.5,149.5 -0.5,74.5 -0.5,-0.5 Z"/></g>
<g><path style="opacity:1" fill="#fafafa" d="M 200.5,48.5 C 175.856,50.4906 150.856,51.1572 125.5,50.5C 121.629,50.185 117.962,50.5184 114.5,51.5C 114.5,52.5 114.5,53.5 114.5,54.5C 113.596,53.791 113.263,52.791 113.5,51.5C 101.833,51.5 90.1667,51.5 78.5,51.5C 78.5,58.1667 78.5,64.8333 78.5,71.5C 78.5,71.8333 78.5,72.1667 78.5,72.5C 69.8333,72.5 61.1667,72.5 52.5,72.5C 52.5,75.8333 52.5,79.1667 52.5,82.5C 61.1667,82.5 69.8333,82.5 78.5,82.5C 78.5,82.8333 78.5,83.1667 78.5,83.5C 76.1667,83.5 73.8333,83.5 71.5,83.5C 71.5,108.833 71.5,134.167 71.5,159.5C 73.8333,159.5 76.1667,159.5 78.5,159.5C 78.5,164.833 78.5,170.167 78.5,175.5C 119.167,176.833 159.833,176.833 200.5,175.5C 201.167,133.833 201.833,92.1667 202.5,50.5C 227.186,79.6049 233.02,112.272 220,148.5C 205.769,181.387 180.936,200.887 145.5,207C 104.128,210.398 72.6279,194.564 51,159.5C 32.4891,121.137 36.1558,85.1369 62,51.5C 93.5289,19.0783 130.362,11.245 172.5,28C 183.139,33.1513 192.472,39.9847 200.5,48.5 Z"/></g>
<g><path style="opacity:1" fill="#e6e173" d="M 114.5,51.5 C 117.962,50.5184 121.629,50.185 125.5,50.5C 125.5,51.1667 125.833,51.5 126.5,51.5C 126.5,52.8333 126.5,54.1667 126.5,55.5C 125.751,54.469 125.085,53.3024 124.5,52C 121.183,51.5017 117.85,51.335 114.5,51.5 Z"/></g>
<g><path style="opacity:1" fill="#020101" d="M 114.5,54.5 C 118.636,69.3794 122.303,84.3794 125.5,99.5C 125.41,102.152 126.076,104.485 127.5,106.5C 128.793,109.679 129.46,113.012 129.5,116.5C 132.598,116.244 135.598,115.578 138.5,114.5C 139.5,114.5 140.5,114.5 141.5,114.5C 141.58,111.219 140.913,108.219 139.5,105.5C 139.59,102.848 138.924,100.515 137.5,98.5C 136.739,92.9091 135.405,87.5758 133.5,82.5C 133.59,79.8478 132.924,77.5145 131.5,75.5C 130.202,68.6311 128.535,61.9644 126.5,55.5C 126.5,54.1667 126.5,52.8333 126.5,51.5C 151.167,51.5 175.833,51.5 200.5,51.5C 200.5,92.8333 200.5,134.167 200.5,175.5C 198.901,175.768 197.568,175.434 196.5,174.5C 196.5,166.5 196.5,158.5 196.5,150.5C 193.167,150.5 190.5,151.833 188.5,154.5C 189.776,155.645 191.109,155.645 192.5,154.5C 193.497,161.134 193.83,167.8 193.5,174.5C 186.018,175.492 178.352,175.825 170.5,175.5C 170.5,166.833 170.5,158.167 170.5,149.5C 169.167,149.5 167.833,149.5 166.5,149.5C 166.823,155.69 166.49,161.69 165.5,167.5C 162.167,161.833 158.833,156.167 155.5,150.5C 154.081,149.549 152.415,149.216 150.5,149.5C 150.5,158.167 150.5,166.833 150.5,175.5C 126.5,175.5 102.5,175.5 78.5,175.5C 78.5,170.167 78.5,164.833 78.5,159.5C 81.1667,159.5 83.8333,159.5 86.5,159.5C 86.5,134.167 86.5,108.833 86.5,83.5C 83.8333,83.5 81.1667,83.5 78.5,83.5C 78.5,83.1667 78.5,82.8333 78.5,82.5C 87.5,82.5 96.5,82.5 105.5,82.5C 105.789,78.8936 105.456,75.3936 104.5,72C 95.8397,71.5002 87.1731,71.3336 78.5,71.5C 78.5,64.8333 78.5,58.1667 78.5,51.5C 90.1667,51.5 101.833,51.5 113.5,51.5C 113.263,52.791 113.596,53.791 114.5,54.5 Z"/></g>
<g><path style="opacity:1" fill="#878787" d="M 200.5,48.5 C 201.5,48.8333 202.167,49.5 202.5,50.5C 201.833,92.1667 201.167,133.833 200.5,175.5C 200.5,134.167 200.5,92.8333 200.5,51.5C 175.833,51.5 151.167,51.5 126.5,51.5C 125.833,51.5 125.5,51.1667 125.5,50.5C 150.856,51.1572 175.856,50.4906 200.5,48.5 Z"/></g>
<g><path style="opacity:1" fill="#840f12" d="M 157.5,63.5 C 159.607,62.5318 161.941,62.1984 164.5,62.5C 164.5,63.8333 164.5,65.1667 164.5,66.5C 163.596,65.791 163.263,64.791 163.5,63.5C 161.5,63.5 159.5,63.5 157.5,63.5 Z"/></g>
<g><path style="opacity:1" fill="#9c1113" d="M 148.5,66.5 C 144.639,69.0842 140.306,70.5842 135.5,71C 134.667,73.0811 134.667,75.2478 135.5,77.5C 138.518,77.2962 141.518,76.9629 144.5,76.5C 141.495,78.2766 138.162,79.2766 134.5,79.5C 133.599,76.1283 133.599,72.795 134.5,69.5C 139.06,67.9881 143.726,66.9881 148.5,66.5 Z"/></g>
<g><path style="opacity:1" fill="#ef0607" d="M 157.5,63.5 C 159.5,63.5 161.5,63.5 163.5,63.5C 163.263,64.791 163.596,65.791 164.5,66.5C 164.5,67.8333 164.5,69.1667 164.5,70.5C 159.693,70.6753 155.36,72.0086 151.5,74.5C 148.848,74.4095 146.515,75.0762 144.5,76.5C 141.518,76.9629 138.518,77.2962 135.5,77.5C 134.667,75.2478 134.667,73.0811 135.5,71C 140.306,70.5842 144.639,69.0842 148.5,66.5C 151.145,64.6896 154.145,63.6896 157.5,63.5 Z"/></g>
<g><path style="opacity:1" fill="#0b0a08" d="M 78.5,72.5 C 78.5,75.8333 78.5,79.1667 78.5,82.5C 69.8333,82.5 61.1667,82.5 52.5,82.5C 52.5,79.1667 52.5,75.8333 52.5,72.5C 61.1667,72.5 69.8333,72.5 78.5,72.5 Z"/></g>
<g><path style="opacity:1" fill="#f9ed15" d="M 114.5,51.5 C 117.85,51.335 121.183,51.5017 124.5,52C 125.085,53.3024 125.751,54.469 126.5,55.5C 128.535,61.9644 130.202,68.6311 131.5,75.5C 131.41,78.1522 132.076,80.4855 133.5,82.5C 133.583,89.1613 134.583,95.6613 136.5,102C 134.943,105.083 135.61,106.583 138.5,106.5C 138.5,109.167 138.5,111.833 138.5,114.5C 135.598,115.578 132.598,116.244 129.5,116.5C 129.46,113.012 128.793,109.679 127.5,106.5C 127.59,103.848 126.924,101.515 125.5,99.5C 122.303,84.3794 118.636,69.3794 114.5,54.5C 114.5,53.5 114.5,52.5 114.5,51.5 Z"/></g>
<g><path style="opacity:1" fill="#a01113" d="M 164.5,66.5 C 165.788,68.0348 165.788,69.7015 164.5,71.5C 160.206,72.7102 155.872,73.7102 151.5,74.5C 155.36,72.0086 159.693,70.6753 164.5,70.5C 164.5,69.1667 164.5,67.8333 164.5,66.5 Z"/></g>
<g><path style="opacity:1" fill="#ebe11e" d="M 78.5,71.5 C 87.1731,71.3336 95.8397,71.5002 104.5,72C 105.456,75.3936 105.789,78.8936 105.5,82.5C 96.5,82.5 87.5,82.5 78.5,82.5C 78.5,79.1667 78.5,75.8333 78.5,72.5C 78.5,72.1667 78.5,71.8333 78.5,71.5 Z"/></g>
<g><path style="opacity:1" fill="#80090d" d="M 151.5,74.5 C 149.485,75.9238 147.152,76.5905 144.5,76.5C 146.515,75.0762 148.848,74.4095 151.5,74.5 Z"/></g>
<g><path style="opacity:1" fill="#ada438" d="M 131.5,75.5 C 132.924,77.5145 133.59,79.8478 133.5,82.5C 132.076,80.4855 131.41,78.1522 131.5,75.5 Z"/></g>
<g><path style="opacity:1" fill="#141319" d="M 78.5,83.5 C 78.5,108.833 78.5,134.167 78.5,159.5C 76.1667,159.5 73.8333,159.5 71.5,159.5C 71.5,134.167 71.5,108.833 71.5,83.5C 73.8333,83.5 76.1667,83.5 78.5,83.5 Z"/></g>
<g><path style="opacity:1" fill="#130d78" d="M 78.5,83.5 C 81.1667,83.5 83.8333,83.5 86.5,83.5C 86.5,108.833 86.5,134.167 86.5,159.5C 83.8333,159.5 81.1667,159.5 78.5,159.5C 78.5,134.167 78.5,108.833 78.5,83.5 Z"/></g>
<g><path style="opacity:1" fill="#6f0b0f" d="M 180.5,93.5 C 177.833,93.8333 175.167,94.1667 172.5,94.5C 174.993,92.4162 177.66,92.0829 180.5,93.5 Z"/></g>
<g><path style="opacity:1" fill="#6e080c" d="M 172.5,94.5 C 170.485,95.9238 168.152,96.5905 165.5,96.5C 167.515,95.0762 169.848,94.4095 172.5,94.5 Z"/></g>
<g><path style="opacity:1" fill="#6a0706" d="M 165.5,96.5 C 163.064,97.871 160.397,98.871 157.5,99.5C 159.617,97.3455 162.284,96.3455 165.5,96.5 Z"/></g>
<g><path style="opacity:1" fill="#1107c0" d="M 80.5,84.5 C 80.5,108.833 80.5,133.167 80.5,157.5C 81.8333,157.5 83.1667,157.5 84.5,157.5C 84.5,133.167 84.5,108.833 84.5,84.5C 85.4977,108.994 85.831,133.661 85.5,158.5C 83.5,158.5 81.5,158.5 79.5,158.5C 79.169,133.661 79.5023,108.994 80.5,84.5 Z"/></g>
<g><path style="opacity:1" fill="#0e01f5" d="M 80.5,84.5 C 81.8333,84.5 83.1667,84.5 84.5,84.5C 84.5,108.833 84.5,133.167 84.5,157.5C 83.1667,157.5 81.8333,157.5 80.5,157.5C 80.5,133.167 80.5,108.833 80.5,84.5 Z"/></g>
<g><path style="opacity:1" fill="#eb0808" d="M 180.5,93.5 C 180.5,96.1667 180.5,98.8333 180.5,101.5C 173.565,102.926 166.899,104.926 160.5,107.5C 157.084,107.528 154.084,108.528 151.5,110.5C 149.076,110.808 146.743,110.474 144.5,109.5C 142.856,106.397 143.523,104.064 146.5,102.5C 150.006,101.267 153.673,100.267 157.5,99.5C 160.397,98.871 163.064,97.871 165.5,96.5C 168.152,96.5905 170.485,95.9238 172.5,94.5C 175.167,94.1667 177.833,93.8333 180.5,93.5 Z"/></g>
<g><path style="opacity:1" fill="#403b0f" d="M 125.5,99.5 C 126.924,101.515 127.59,103.848 127.5,106.5C 126.076,104.485 125.41,102.152 125.5,99.5 Z"/></g>
<g><path style="opacity:1" fill="#e1d92e" d="M 133.5,82.5 C 135.405,87.5758 136.739,92.9091 137.5,98.5C 137.41,101.152 138.076,103.485 139.5,105.5C 140.913,108.219 141.58,111.219 141.5,114.5C 140.5,114.5 139.5,114.5 138.5,114.5C 138.5,111.833 138.5,109.167 138.5,106.5C 135.61,106.583 134.943,105.083 136.5,102C 134.583,95.6613 133.583,89.1613 133.5,82.5 Z"/></g>
<g><path style="opacity:1" fill="#9e9933" d="M 137.5,98.5 C 138.924,100.515 139.59,102.848 139.5,105.5C 138.076,103.485 137.41,101.152 137.5,98.5 Z"/></g>
<g><path style="opacity:1" fill="#911115" d="M 146.5,102.5 C 143.523,104.064 142.856,106.397 144.5,109.5C 146.743,110.474 149.076,110.808 151.5,110.5C 144.219,114.257 141.053,111.924 142,103.5C 143.356,102.62 144.856,102.286 146.5,102.5 Z"/></g>
<g><path style="opacity:1" fill="#6d080e" d="M 180.5,93.5 C 182.202,96.1519 182.536,98.9853 181.5,102C 174.731,104.757 167.731,106.59 160.5,107.5C 166.899,104.926 173.565,102.926 180.5,101.5C 180.5,98.8333 180.5,96.1667 180.5,93.5 Z"/></g>
<g><path style="opacity:1" fill="#73060a" d="M 160.5,107.5 C 157.855,109.31 154.855,110.31 151.5,110.5C 154.084,108.528 157.084,107.528 160.5,107.5 Z"/></g>
<g><path style="opacity:1" fill="#484848" d="M 155.5,150.5 C 154.167,150.5 152.833,150.5 151.5,150.5C 151.5,158.5 151.5,166.5 151.5,174.5C 151.5,175.167 151.167,175.5 150.5,175.5C 150.5,166.833 150.5,158.167 150.5,149.5C 152.415,149.216 154.081,149.549 155.5,150.5 Z"/></g>
<g><path style="opacity:1" fill="#c6c6c6" d="M 176.5,149.5 C 182.989,149.156 184.989,151.99 182.5,158C 176.744,160.569 173.911,158.736 174,152.5C 175.045,151.627 175.878,150.627 176.5,149.5 Z"/></g>
<g><path style="opacity:1" fill="#121212" d="M 177.5,151.5 C 181.35,151.701 182.35,153.534 180.5,157C 176.537,157.118 175.537,155.284 177.5,151.5 Z"/></g>
<g><path style="opacity:1" fill="#e7e7e7" d="M 196.5,174.5 C 195.5,174.5 194.5,174.5 193.5,174.5C 193.83,167.8 193.497,161.134 192.5,154.5C 191.109,155.645 189.776,155.645 188.5,154.5C 190.5,151.833 193.167,150.5 196.5,150.5C 196.5,158.5 196.5,166.5 196.5,174.5 Z"/></g>
<g><path style="opacity:1" fill="#0b0b0b" d="M 166.5,174.5 C 162.5,175.833 158.5,175.833 154.5,174.5C 154.334,168.158 154.5,161.825 155,155.5C 158.662,161.982 162.495,168.315 166.5,174.5 Z"/></g>
<g><path style="opacity:1" fill="#e7e7e7" d="M 155.5,150.5 C 158.833,156.167 162.167,161.833 165.5,167.5C 165.987,168.473 166.487,169.473 167,170.5C 167.169,163.809 167.669,157.142 168.5,150.5C 169.498,158.472 169.831,166.472 169.5,174.5C 168.5,174.5 167.5,174.5 166.5,174.5C 162.495,168.315 158.662,161.982 155,155.5C 154.5,161.825 154.334,168.158 154.5,174.5C 153.5,174.5 152.5,174.5 151.5,174.5C 151.5,166.5 151.5,158.5 151.5,150.5C 152.833,150.5 154.167,150.5 155.5,150.5 Z"/></g>
<g><path style="opacity:1" fill="#8c8c8c" d="M 193.5,174.5 C 194.5,174.5 195.5,174.5 196.5,174.5C 197.568,175.434 198.901,175.768 200.5,175.5C 159.833,176.833 119.167,176.833 78.5,175.5C 102.5,175.5 126.5,175.5 150.5,175.5C 151.167,175.5 151.5,175.167 151.5,174.5C 152.5,174.5 153.5,174.5 154.5,174.5C 158.5,175.833 162.5,175.833 166.5,174.5C 167.5,174.5 168.5,174.5 169.5,174.5C 169.831,166.472 169.498,158.472 168.5,150.5C 167.669,157.142 167.169,163.809 167,170.5C 166.487,169.473 165.987,168.473 165.5,167.5C 166.49,161.69 166.823,155.69 166.5,149.5C 167.833,149.5 169.167,149.5 170.5,149.5C 170.5,158.167 170.5,166.833 170.5,175.5C 178.352,175.825 186.018,175.492 193.5,174.5 Z"/></g>
</svg>
